<svg viewBox="0 0 412.850393701 137.536970079" width="412.850393701pt" height="137.536970079pt" xmlns="http://www.w3.org/2000/svg" xmlns:xlink="http://www.w3.org/1999/xlink" xmlns:h5="http://www.w3.org/1999/xhtml"><g transform="translate(8 8)"><path fill="none" stroke="#000000" stroke-width="1" stroke-linecap="butt" stroke-linejoin="miter" stroke-miterlimit="4" transform="translate(42.519685039 18.2488)" d="M 0 0m 42.519685039 0c -23.46168189 0 -42.519685039 19.05800315 -42.519685039 42.519685039c 0 23.46168189 19.05800315 42.519685039 42.519685039 42.519685039c 23.46168189 0 42.519685039 -19.05800315 42.519685039 -42.519685039c 0 -23.46168189 -19.05800315 -42.519685039 -42.519685039 -42.519685039Z "/><path fill="none" transform="translate(68.225770079)" d="M 0 0h 33.6272v 18.2488h -33.6272v -18.2488Z "/><g transform="translate(68.225770063 -1.26e-7)"><g transform="matrix(1 0 0 -1 0 8.196)"><use xlink:href="#g6BE0DC9974018980F88C53EB3F3328FD" x="0" y="0" fill="#000000" fill-rule="nonzero"/></g><g transform="matrix(1 0 0 -1 10.536 3.7512)"><use xlink:href="#gE36E487DB8F621557DF3849AFE74ED94" x="0" y="0" fill="#000000" fill-rule="nonzero"/></g><g transform="matrix(1 0 0 -1 10.536 11.2488)"><use xlink:href="#g3EE1CFC71E550A7A34B42DD2B913151" x="0" y="0" fill="#000000" fill-rule="nonzero"/></g><g transform="matrix(1 0 0 -1 15.9876 8.196)"><use xlink:href="#gDAF3D0A35048C98CCA58ECFB323223AF" x="0" y="0" fill="#000000" fill-rule="nonzero"/></g><g transform="matrix(1 0 0 -1 21.3236 8.196)"><use xlink:href="#g56912F888F1E2C193E873BC9171852B9" x="0" y="0" fill="#000000" fill-rule="nonzero"/></g><g transform="matrix(1 0 0 -1 28.1756 3.7512)"><use xlink:href="#gE36E487DB8F621557DF3849AFE74ED94" x="0" y="0" fill="#000000" fill-rule="nonzero"/></g><g transform="matrix(1 0 0 -1 27.5396 11.2488)"><use xlink:href="#g3EE1CFC71E550A7A34B42DD2B913151" x="0" y="0" fill="#000000" fill-rule="nonzero"/></g></g><path fill="none" stroke="#4040d9" stroke-width="0.75" stroke-linecap="butt" stroke-linejoin="miter" stroke-miterlimit="4" transform="translate(57.165038754 22.871193212)" d="M 0 0m 0 12.910274579c 6.867053571 -8.183835764 17.002934319 -12.910274579 27.68617318 -12.910274579c 9.612945904 0 18.782713313 3.826847532 25.526569928 10.555979343"/><path fill="#4040d9" fill-rule="nonzero" stroke="#4040d9" stroke-width="0.75" stroke-linecap="butt" stroke-linejoin="miter" stroke-miterlimit="4" stroke-dashoffset="0" stroke-dasharray="" transform="translate(109.13728831 32.168924951)" d="M 0 0m 2.685914624 2.818459211l -1.105195008 -2.818459211l -0.316471104 1.237739595l -1.264248512 0.183926517l 2.685914624 1.396793099Z "/><path fill="none" transform="translate(79.449411935 22.871193212)" d="M 0 0h 10.8036v 11.328h -10.8036v -11.328Z "/><g transform="translate(79.449411935 22.871193165)"><g transform="matrix(1 0 0 -1 0 8.196)"><use xlink:href="#g7F834FCD59DDD45D3563EAE50B4C1FB8" x="0" y="0" fill="#4040d9" fill-rule="nonzero"/></g><g transform="matrix(1 0 0 -1 5.352 11.16)"><use xlink:href="#g20ED7EFE0C9D86B6113C183B5E3A4F77" x="0" y="0" fill="#4040d9" fill-rule="nonzero"/></g></g><path fill="#cdd3da" fill-rule="nonzero" transform="translate(79.76141593 98.01021593)" d="M 0 0m 5.277954149 0c -2.912290652 0 -5.277954149 2.365663497 -5.277954149 5.277954149c 0 2.912290652 2.365663497 5.277954149 5.277954149 5.277954149c 2.912290652 0 5.277954149 -2.365663497 5.277954149 -5.277954149c 0 -2.912290652 -2.365663497 -5.277954149 -5.277954149 -5.277954149Z "/><g transform="translate(81.283370031 99.580170079)"><g transform="matrix(1 0 0 -1 -2.5 7.428)"><use xlink:href="#g82FAB6109AFD1A5AC71B1E0C13B45BB5" x="0" y="0" fill="#000000" fill-rule="nonzero"/></g></g><path fill="none" transform="translate(68.225770079 103.288170079)" d="M 0 0h 33.6272v 18.2488h -33.6272v -18.2488Z "/><g transform="translate(68.225770063 103.288169953)"><g transform="matrix(1 0 0 -1 0 15.196)"><use xlink:href="#g6BE0DC9974018980F88C53EB3F3328FD" x="0" y="0" fill="#000000" fill-rule="nonzero"/></g><g transform="matrix(1 0 0 -1 10.536 10.7512)"><use xlink:href="#gE36E487DB8F621557DF3849AFE74ED94" x="0" y="0" fill="#000000" fill-rule="nonzero"/></g><g transform="matrix(1 0 0 -1 10.536 18.2488)"><use xlink:href="#gE36E487DB8F621557DF3849AFE74ED94" x="0" y="0" fill="#000000" fill-rule="nonzero"/></g><g transform="matrix(1 0 0 -1 15.9876 15.196)"><use xlink:href="#gDAF3D0A35048C98CCA58ECFB323223AF" x="0" y="0" fill="#000000" fill-rule="nonzero"/></g><g transform="matrix(1 0 0 -1 21.3236 15.196)"><use xlink:href="#g56912F888F1E2C193E873BC9171852B9" x="0" y="0" fill="#000000" fill-rule="nonzero"/></g><g transform="matrix(1 0 0 -1 28.1756 10.7512)"><use xlink:href="#gE36E487DB8F621557DF3849AFE74ED94" x="0" y="0" fill="#000000" fill-rule="nonzero"/></g><g transform="matrix(1 0 0 -1 27.5396 18.2488)"><use xlink:href="#gE36E487DB8F621557DF3849AFE74ED94" x="0" y="0" fill="#000000" fill-rule="nonzero"/></g></g><path fill="#000000" fill-rule="nonzero" stroke="#000000" stroke-width="1" stroke-linecap="butt" stroke-linejoin="miter" stroke-miterlimit="4" transform="translate(40.519685039 58.768485039)" d="M 0 0m 2 0c -1.103568 0 -2 0.896432 -2 2c 0 1.103568 0.896432 2 2 2c 1.103568 0 2 -0.896432 2 -2c 0 -1.103568 -0.896432 -2 -2 -2Z "/><path fill="none" transform="translate(33.850393701 61.103776378)" d="M 0 0h 6v 10.668h -6v -10.668Z "/><g transform="translate(33.850393654 61.103776283)"><g transform="matrix(1 0 0 -1 0 8.196)"><use xlink:href="#g7B5EAD54DC96731AA9940C544FAC898C" x="0" y="0" fill="#000000" fill-rule="nonzero"/></g></g><path fill="#000000" fill-rule="nonzero" stroke="#000000" stroke-width="1" stroke-linecap="butt" stroke-linejoin="miter" stroke-miterlimit="4" transform="translate(125.559055118 58.768485039)" d="M 0 0m 2 0c -1.103568 0 -2 0.896432 -2 2c 0 1.103568 0.896432 2 2 2c 1.103568 0 2 -0.896432 2 -2c 0 -1.103568 -0.896432 -2 -2 -2Z "/><path fill="none" transform="translate(130.228346457 61.103776378)" d="M 0 0h 6v 10.668h -6v -10.668Z "/><g transform="translate(130.228346409 61.103776283)"><g transform="matrix(1 0 0 -1 0 8.196)"><use xlink:href="#g7B5EAD54DC96731AA9940C544FAC898C" x="0" y="0" fill="#000000" fill-rule="nonzero"/></g></g><path fill="none" stroke="#000000" stroke-width="1" stroke-linecap="butt" stroke-linejoin="miter" stroke-miterlimit="4" transform="translate(0 60.768485039)" d="M 0 0h 42.519685039"/><path fill="none" stroke="#000000" stroke-width="1" stroke-linecap="butt" stroke-linejoin="miter" stroke-miterlimit="4" transform="translate(127.559055118 60.768485039)" d="M 0 0h 42.519685039"/><path fill="none" stroke="#4040d9" stroke-width="0.75" stroke-linecap="butt" stroke-linejoin="miter" stroke-miterlimit="4" transform="translate(5.669291339 56.516516535)" d="M 0 0h 27.987117642"/><path fill="#4040d9" fill-rule="nonzero" stroke="#4040d9" stroke-width="0.75" stroke-linecap="butt" stroke-linejoin="miter" stroke-miterlimit="4" stroke-dashoffset="0" stroke-dasharray="" transform="translate(32.947747563 55.453524409)" d="M 0 0m 2.834645669 1.062992126l -2.834645669 -1.062992126l 0.708661417 1.062992126l -0.708661417 1.062992126l 2.834645669 -1.062992126Z "/><path fill="none" transform="translate(15.85804252 40.936548031)" d="M 0 0h 10.8036v 11.328h -10.8036v -11.328Z "/><g transform="translate(15.85804252 40.936547984)"><g transform="matrix(1 0 0 -1 0 8.196)"><use xlink:href="#g7F834FCD59DDD45D3563EAE50B4C1FB8" x="0" y="0" fill="#4040d9" fill-rule="nonzero"/></g><g transform="matrix(1 0 0 -1 5.352 11.16)"><use xlink:href="#g20ED7EFE0C9D86B6113C183B5E3A4F77" x="0" y="0" fill="#4040d9" fill-rule="nonzero"/></g></g><path fill="none" stroke="#4040d9" stroke-width="0.75" stroke-linecap="butt" stroke-linejoin="miter" stroke-miterlimit="4" transform="translate(133.228346457 56.516516535)" d="M 0 0h 27.987117642"/><path fill="#4040d9" fill-rule="nonzero" stroke="#4040d9" stroke-width="0.75" stroke-linecap="butt" stroke-linejoin="miter" stroke-miterlimit="4" stroke-dashoffset="0" stroke-dasharray="" transform="translate(160.506802681 55.453524409)" d="M 0 0m 2.834645669 1.062992126l -2.834645669 -1.062992126l 0.708661417 1.062992126l -0.708661417 1.062992126l 2.834645669 -1.062992126Z "/><path fill="none" transform="translate(143.417097638 40.936548031)" d="M 0 0h 10.8036v 11.328h -10.8036v -11.328Z "/><g transform="translate(143.417097638 40.936547984)"><g transform="matrix(1 0 0 -1 0 8.196)"><use xlink:href="#g7F834FCD59DDD45D3563EAE50B4C1FB8" x="0" y="0" fill="#4040d9" fill-rule="nonzero"/></g><g transform="matrix(1 0 0 -1 5.352 11.16)"><use xlink:href="#g20ED7EFE0C9D86B6113C183B5E3A4F77" x="0" y="0" fill="#4040d9" fill-rule="nonzero"/></g></g><path fill="none" transform="translate(191.42319685 53.874485039)" d="M 0 0h 14.004v 13.788h -14.004v -13.788Z "/><g transform="translate(191.42319685 53.874484898)"><g transform="matrix(1 0 0 -1 0 12.294)"><use xlink:href="#g35FEDEA4DB2771F58F898EF101826CA7" x="0" y="0" fill="#000000" fill-rule="nonzero"/></g></g><path fill="none" stroke="#000000" stroke-width="1" stroke-linecap="butt" stroke-linejoin="miter" stroke-miterlimit="4" transform="translate(269.291338583 18.2488)" d="M 0 0m 42.519685039 0c -23.46168189 0 -42.519685039 19.05800315 -42.519685039 42.519685039c 0 23.46168189 19.05800315 42.519685039 42.519685039 42.519685039c 23.46168189 0 42.519685039 -19.05800315 42.519685039 -42.519685039c 0 -23.46168189 -19.05800315 -42.519685039 -42.519685039 -42.519685039Z "/><path fill="none" transform="translate(294.997423622)" d="M 0 0h 33.6272v 18.2488h -33.6272v -18.2488Z "/><g transform="translate(294.997423606 -1.26e-7)"><g transform="matrix(1 0 0 -1 0 8.196)"><use xlink:href="#g6BE0DC9974018980F88C53EB3F3328FD" x="0" y="0" fill="#000000" fill-rule="nonzero"/></g><g transform="matrix(1 0 0 -1 10.536 3.7512)"><use xlink:href="#gE36E487DB8F621557DF3849AFE74ED94" x="0" y="0" fill="#000000" fill-rule="nonzero"/></g><g transform="matrix(1 0 0 -1 10.536 11.2488)"><use xlink:href="#g3EE1CFC71E550A7A34B42DD2B913151" x="0" y="0" fill="#000000" fill-rule="nonzero"/></g><g transform="matrix(1 0 0 -1 15.9876 8.196)"><use xlink:href="#gDAF3D0A35048C98CCA58ECFB323223AF" x="0" y="0" fill="#000000" fill-rule="nonzero"/></g><g transform="matrix(1 0 0 -1 21.3236 8.196)"><use xlink:href="#g56912F888F1E2C193E873BC9171852B9" x="0" y="0" fill="#000000" fill-rule="nonzero"/></g><g transform="matrix(1 0 0 -1 28.1756 3.7512)"><use xlink:href="#gE36E487DB8F621557DF3849AFE74ED94" x="0" y="0" fill="#000000" fill-rule="nonzero"/></g><g transform="matrix(1 0 0 -1 27.5396 11.2488)"><use xlink:href="#g3EE1CFC71E550A7A34B42DD2B913151" x="0" y="0" fill="#000000" fill-rule="nonzero"/></g></g><path fill="none" stroke="#4040d9" stroke-width="0.75" stroke-linecap="butt" stroke-linejoin="miter" stroke-miterlimit="4" transform="translate(283.936692298 85.755502287)" d="M 0 0c 6.867053571 8.183835764 17.002934319 12.910274579 27.68617318 12.910274579c 9.612945904 0 18.782713313 -3.826847532 25.526569928 -10.555979343"/><path fill="#4040d9" fill-rule="nonzero" stroke="#4040d9" stroke-width="0.75" stroke-linecap="butt" stroke-linejoin="miter" stroke-miterlimit="4" stroke-dashoffset="0" stroke-dasharray="" transform="translate(335.908941853 86.549585916)" d="M 0 0m 2.685914624 0l -2.685914624 1.396793099l 1.264248512 0.183926517l 0.316471104 1.237739595l 1.105195008 -2.818459211Z "/><path fill="none" transform="translate(306.221065478 84.337776867)" d="M 0 0h 10.8036v 14.328h -10.8036v -14.328Z "/><g transform="translate(306.221065478 84.337776867)"><g transform="matrix(1 0 0 -1 0 8.196)"><use xlink:href="#g7F834FCD59DDD45D3563EAE50B4C1FB8" x="0" y="0" fill="#4040d9" fill-rule="nonzero"/></g><g transform="matrix(1 0 0 -1 5.352 11.16)"><use xlink:href="#g20ED7EFE0C9D86B6113C183B5E3A4F77" x="0" y="0" fill="#4040d9" fill-rule="nonzero"/></g></g><path fill="#cdd3da" fill-rule="nonzero" transform="translate(306.533069473 12.970845851)" d="M 0 0m 5.277954149 0c -2.912290652 0 -5.277954149 2.365663497 -5.277954149 5.277954149c 0 2.912290652 2.365663497 5.277954149 5.277954149 5.277954149c 2.912290652 0 5.277954149 -2.365663497 5.277954149 -5.277954149c 0 -2.912290652 -2.365663497 -5.277954149 -5.277954149 -5.277954149Z "/><g transform="translate(308.055023575 14.5408)"><g transform="matrix(1 0 0 -1 -2.5 7.428)"><use xlink:href="#g82FAB6109AFD1A5AC71B1E0C13B45BB5" x="0" y="0" fill="#000000" fill-rule="nonzero"/></g></g><path fill="none" transform="translate(294.997423622 103.288170079)" d="M 0 0h 33.6272v 18.2488h -33.6272v -18.2488Z "/><g transform="translate(294.997423606 103.288169953)"><g transform="matrix(1 0 0 -1 0 15.196)"><use xlink:href="#g6BE0DC9974018980F88C53EB3F3328FD" x="0" y="0" fill="#000000" fill-rule="nonzero"/></g><g transform="matrix(1 0 0 -1 10.536 10.7512)"><use xlink:href="#gE36E487DB8F621557DF3849AFE74ED94" x="0" y="0" fill="#000000" fill-rule="nonzero"/></g><g transform="matrix(1 0 0 -1 10.536 18.2488)"><use xlink:href="#gE36E487DB8F621557DF3849AFE74ED94" x="0" y="0" fill="#000000" fill-rule="nonzero"/></g><g transform="matrix(1 0 0 -1 15.9876 15.196)"><use xlink:href="#gDAF3D0A35048C98CCA58ECFB323223AF" x="0" y="0" fill="#000000" fill-rule="nonzero"/></g><g transform="matrix(1 0 0 -1 21.3236 15.196)"><use xlink:href="#g56912F888F1E2C193E873BC9171852B9" x="0" y="0" fill="#000000" fill-rule="nonzero"/></g><g transform="matrix(1 0 0 -1 28.1756 10.7512)"><use xlink:href="#gE36E487DB8F621557DF3849AFE74ED94" x="0" y="0" fill="#000000" fill-rule="nonzero"/></g><g transform="matrix(1 0 0 -1 27.5396 18.2488)"><use xlink:href="#gE36E487DB8F621557DF3849AFE74ED94" x="0" y="0" fill="#000000" fill-rule="nonzero"/></g></g><path fill="#000000" fill-rule="nonzero" stroke="#000000" stroke-width="1" stroke-linecap="butt" stroke-linejoin="miter" stroke-miterlimit="4" transform="translate(267.291338583 58.768485039)" d="M 0 0m 2 0c -1.103568 0 -2 0.896432 -2 2c 0 1.103568 0.896432 2 2 2c 1.103568 0 2 -0.896432 2 -2c 0 -1.103568 -0.896432 -2 -2 -2Z "/><path fill="none" transform="translate(260.622047244 61.103776378)" d="M 0 0h 6v 10.668h -6v -10.668Z "/><g transform="translate(260.622047197 61.103776283)"><g transform="matrix(1 0 0 -1 0 8.196)"><use xlink:href="#g7B5EAD54DC96731AA9940C544FAC898C" x="0" y="0" fill="#000000" fill-rule="nonzero"/></g></g><path fill="#000000" fill-rule="nonzero" stroke="#000000" stroke-width="1" stroke-linecap="butt" stroke-linejoin="miter" stroke-miterlimit="4" transform="translate(352.330708661 58.768485039)" d="M 0 0m 2 0c -1.103568 0 -2 0.896432 -2 2c 0 1.103568 0.896432 2 2 2c 1.103568 0 2 -0.896432 2 -2c 0 -1.103568 -0.896432 -2 -2 -2Z "/><path fill="none" transform="translate(357 61.103776378)" d="M 0 0h 6v 10.668h -6v -10.668Z "/><g transform="translate(356.999999953 61.103776283)"><g transform="matrix(1 0 0 -1 0 8.196)"><use xlink:href="#g7B5EAD54DC96731AA9940C544FAC898C" x="0" y="0" fill="#000000" fill-rule="nonzero"/></g></g><path fill="none" stroke="#000000" stroke-width="1" stroke-linecap="butt" stroke-linejoin="miter" stroke-miterlimit="4" transform="translate(226.771653543 60.768485039)" d="M 0 0h 42.519685039"/><path fill="none" stroke="#000000" stroke-width="1" stroke-linecap="butt" stroke-linejoin="miter" stroke-miterlimit="4" transform="translate(354.330708661 60.768485039)" d="M 0 0h 42.519685039"/><path fill="none" stroke="#4040d9" stroke-width="0.75" stroke-linecap="butt" stroke-linejoin="miter" stroke-miterlimit="4" transform="translate(232.440944882 56.516516535)" d="M 0 0h 27.987117642"/><path fill="#4040d9" fill-rule="nonzero" stroke="#4040d9" stroke-width="0.75" stroke-linecap="butt" stroke-linejoin="miter" stroke-miterlimit="4" stroke-dashoffset="0" stroke-dasharray="" transform="translate(259.719401106 55.453524409)" d="M 0 0m 2.834645669 1.062992126l -2.834645669 -1.062992126l 0.708661417 1.062992126l -0.708661417 1.062992126l 2.834645669 -1.062992126Z "/><path fill="none" transform="translate(242.629696063 40.936548031)" d="M 0 0h 10.8036v 11.328h -10.8036v -11.328Z "/><g transform="translate(242.629696063 40.936547984)"><g transform="matrix(1 0 0 -1 0 8.196)"><use xlink:href="#g7F834FCD59DDD45D3563EAE50B4C1FB8" x="0" y="0" fill="#4040d9" fill-rule="nonzero"/></g><g transform="matrix(1 0 0 -1 5.352 11.16)"><use xlink:href="#g20ED7EFE0C9D86B6113C183B5E3A4F77" x="0" y="0" fill="#4040d9" fill-rule="nonzero"/></g></g><path fill="none" stroke="#4040d9" stroke-width="0.75" stroke-linecap="butt" stroke-linejoin="miter" stroke-miterlimit="4" transform="translate(360 56.516516535)" d="M 0 0h 27.987117642"/><path fill="#4040d9" fill-rule="nonzero" stroke="#4040d9" stroke-width="0.75" stroke-linecap="butt" stroke-linejoin="miter" stroke-miterlimit="4" stroke-dashoffset="0" stroke-dasharray="" transform="translate(387.278456224 55.453524409)" d="M 0 0m 2.834645669 1.062992126l -2.834645669 -1.062992126l 0.708661417 1.062992126l -0.708661417 1.062992126l 2.834645669 -1.062992126Z "/><path fill="none" transform="translate(370.188751181 40.936548031)" d="M 0 0h 10.8036v 11.328h -10.8036v -11.328Z "/><g transform="translate(370.188751181 40.936547984)"><g transform="matrix(1 0 0 -1 0 8.196)"><use xlink:href="#g7F834FCD59DDD45D3563EAE50B4C1FB8" x="0" y="0" fill="#4040d9" fill-rule="nonzero"/></g><g transform="matrix(1 0 0 -1 5.352 11.16)"><use xlink:href="#g20ED7EFE0C9D86B6113C183B5E3A4F77" x="0" y="0" fill="#4040d9" fill-rule="nonzero"/></g></g></g><defs><symbol id="g6BE0DC9974018980F88C53EB3F3328FD" overflow="visible"><path d="M 0 0m 7.884 5.304c -0.732 0 -1.368 -0.36 -1.908 -1.068c -0.108 0.708 -0.564 1.068 -1.38 1.068c -0.708 0 -1.32 -0.312 -1.824 -0.948c -0.096 0.528 -0.516 0.948 -1.128 0.948c -0.492 0 -0.852 -0.396 -1.104 -1.176c -0.132 -0.384 -0.192 -0.612 -0.192 -0.684c 0 -0.108 0.06 -0.168 0.192 -0.168c 0.06 0 0.096 0.012 0.132 0.036c 0.06 0.108 0.096 0.192 0.12 0.276c 0.216 0.912 0.492 1.368 0.816 1.368c 0.216 0 0.324 -0.168 0.324 -0.504c 0 -0.156 -0.06 -0.48 -0.192 -0.972l -0.684 -2.724c -0.048 -0.144 -0.108 -0.456 -0.108 -0.528c 0 -0.24 0.132 -0.36 0.384 -0.36c 0.24 0 0.408 0.12 0.492 0.36c 0.012 0.06 0.096 0.36 0.228 0.876l 0.252 1.068l 0.36 1.368c 0.132 0.276 0.336 0.552 0.6 0.84c 0.348 0.384 0.78 0.576 1.296 0.576c 0.396 0 0.588 -0.264 0.588 -0.78c 0 -0.156 -0.06 -0.48 -0.18 -0.972l -0.324 -1.368c -0.084 -0.348 -0.276 -1.068 -0.372 -1.452c -0.012 -0.084 -0.024 -0.132 -0.024 -0.156c 0 -0.24 0.132 -0.36 0.396 -0.36c 0.132 0 0.228 0.036 0.312 0.12c 0.18 0.18 0.192 0.264 0.264 0.588l 0.708 2.844c 0.036 0.156 0.204 0.432 0.492 0.816c 0.36 0.48 0.84 0.72 1.428 0.72c 0.396 0 0.588 -0.264 0.588 -0.78c 0 -0.468 -0.24 -1.344 -0.732 -2.628c -0.108 -0.276 -0.156 -0.504 -0.156 -0.66c 0 -0.588 0.444 -1.02 1.02 -1.02c 0.54 0 0.948 0.3 1.248 0.9c 0.24 0.48 0.36 0.804 0.36 0.96c 0 0.108 -0.06 0.168 -0.192 0.168c -0.084 -0.012 -0.168 -0.12 -0.228 -0.252c -0.264 -0.948 -0.648 -1.428 -1.164 -1.428c -0.156 0 -0.24 0.12 -0.24 0.348c 0 0.18 0.072 0.444 0.216 0.816c 0.492 1.284 0.732 2.16 0.732 2.616c 0 0.852 -0.564 1.308 -1.416 1.308Z "/></symbol><symbol id="gE36E487DB8F621557DF3849AFE74ED94" overflow="visible"><path d="M 0 0m 0.9996 3.5616c 0.2688 0 0.4704 0.2016 0.4704 0.4704c 0 0.3024 -0.1596 0.462 -0.4704 0.4704c 0.1848 0.3948 0.6048 0.714 1.1508 0.714c 0.7392 0 1.2264 -0.5544 1.2264 -1.2936c 0 -0.4032 -0.1428 -0.7896 -0.4368 -1.1676c -0.1428 -0.1932 -0.252 -0.3276 -0.3276 -0.4032l -1.9908 -1.974c -0.1092 -0.1008 -0.0924 -0.126 -0.0924 -0.378h 3.4608l 0.2604 1.5792h -0.3528c -0.0588 -0.4452 -0.126 -0.7056 -0.2016 -0.7644c -0.042 -0.0252 -0.3024 -0.042 -0.798 -0.042h -1.428c 0.5628 0.4956 1.0836 0.9408 1.5792 1.3356c 0.378 0.294 0.6468 0.5544 0.8148 0.7812c 0.252 0.3276 0.378 0.672 0.378 1.0332c 0 0.5208 -0.2016 0.9324 -0.6132 1.2348c -0.3612 0.2772 -0.8148 0.42 -1.3524 0.42c -0.462 0 -0.8568 -0.1344 -1.2012 -0.4032c -0.3612 -0.294 -0.546 -0.6636 -0.546 -1.1172c 0 -0.2856 0.21 -0.4956 0.4704 -0.4956Z "/></symbol><symbol id="g3EE1CFC71E550A7A34B42DD2B913151" overflow="visible"><path d="M 0 0m 2.5452 5.5776c -0.3612 -0.3528 -0.8988 -0.5292 -1.6296 -0.5292v -0.3696c 0.4956 0 0.8904 0.0756 1.1928 0.2184v -4.1832c 0 -0.1092 -0.0084 -0.1764 -0.0336 -0.21c -0.042 -0.0924 -0.294 -0.1428 -0.756 -0.1428h -0.3444v -0.3612l 1.4952 0.0336l 1.5036 -0.0336v 0.3612h -0.3444c -0.462 0 -0.714 0.0504 -0.7644 0.1428c -0.0168 0.0336 -0.0252 0.1008 -0.0252 0.21v 4.5948c 0 0.2268 -0.0336 0.2688 -0.294 0.2688Z "/></symbol><symbol id="gDAF3D0A35048C98CCA58ECFB323223AF" overflow="visible"><path d="M 0 0m 1.668 1.272c -0.384 0 -0.636 -0.288 -0.636 -0.672c 0 -0.36 0.276 -0.66 0.636 -0.66c 0.168 0 0.312 0.048 0.42 0.156l 0.012 -0.096c 0 -0.756 -0.252 -1.404 -0.756 -1.92c -0.084 -0.096 -0.132 -0.168 -0.132 -0.216c 0 -0.12 0.048 -0.18 0.156 -0.18c 0.108 0 0.252 0.144 0.456 0.42c 0.408 0.576 0.612 1.212 0.612 1.896c 0 0.636 -0.216 1.272 -0.768 1.272Z "/></symbol><symbol id="g56912F888F1E2C193E873BC9171852B9" overflow="visible"><path d="M 0 0m 6.288 4.536c 0.156 0.3 0.228 0.456 0.228 0.468c 0 0.108 -0.06 0.168 -0.192 0.168c -0.084 0 -0.144 -0.036 -0.18 -0.108c -0.42 -0.78 -0.912 -1.884 -1.488 -3.312c -0.048 0.792 -0.204 1.536 -0.468 2.22c -0.348 0.888 -0.888 1.332 -1.62 1.332c -0.756 0 -1.416 -0.504 -1.752 -0.972c -0.396 -0.564 -0.6 -0.984 -0.6 -1.248c 0 -0.108 0.096 -0.168 0.3 -0.168l 0.06 0.084c 0.204 0.624 0.552 1.02 1.044 1.188c 0.336 0.108 0.6 0.168 0.792 0.168c 1.248 0 1.872 -0.984 1.872 -2.964c 0 -0.468 -0.048 -0.852 -0.144 -1.152c -0.408 -1.332 -0.612 -2.184 -0.612 -2.556c 0 -0.18 0.072 -0.264 0.204 -0.264c 0.144 0 0.288 0.252 0.42 0.744c 0.204 0.768 0.348 1.452 0.432 2.052c 0.036 0.18 0.06 0.336 0.096 0.444c 0.432 1.344 0.972 2.64 1.608 3.876Z "/></symbol><symbol id="g7F834FCD59DDD45D3563EAE50B4C1FB8" overflow="visible"><path d="M 0 0m 4.464 4.524c -0.24 0.516 -0.612 0.78 -1.104 0.78c -0.78 0 -1.464 -0.396 -2.052 -1.2c -0.552 -0.744 -0.828 -1.512 -0.828 -2.316c 0 -1.044 0.6 -1.944 1.596 -1.944c 0.432 0 0.864 0.204 1.308 0.612l -0.492 -1.968c -0.036 -0.18 -0.144 -0.288 -0.312 -0.324c -0.06 -0.012 -0.216 -0.024 -0.492 -0.024c -0.072 -0.012 -0.12 -0.012 -0.144 -0.012c -0.108 -0.012 -0.168 -0.108 -0.168 -0.276v -0.048c 0.036 -0.084 0.108 -0.132 0.204 -0.132c 0.228 0 0.948 0.036 1.176 0.036c 0.228 0 0.984 -0.036 1.212 -0.036c 0.168 0 0.252 0.096 0.252 0.288c 0 0.12 -0.12 0.18 -0.348 0.18c -0.216 0 -0.516 -0.012 -0.516 0.132c 0 0.048 0.012 0.132 0.048 0.252l 1.62 6.6c 0 0.108 -0.06 0.168 -0.168 0.168c -0.216 0 -0.672 -0.6 -0.792 -0.768Z m -0.384 -0.048c 0.108 -0.252 0.168 -0.42 0.168 -0.528c 0 -0.012 -0.012 -0.084 -0.036 -0.192l -0.288 -1.164c -0.228 -0.864 -0.336 -1.308 -0.348 -1.332c -0.228 -0.42 -0.888 -1.068 -1.464 -1.068c -0.468 0 -0.708 0.36 -0.708 1.068c 0 0.552 0.372 1.896 0.54 2.34c 0.228 0.564 0.756 1.344 1.416 1.344c 0.324 0 0.564 -0.156 0.72 -0.468Z "/></symbol><symbol id="g20ED7EFE0C9D86B6113C183B5E3A4F77" overflow="visible"><path d="M 0 0m 4.3344 2.6796c 0 0.9492 -0.168 1.6716 -0.4956 2.1672c -0.2688 0.42 -0.8064 0.7308 -1.4532 0.7308c -0.2688 0 -0.5124 -0.042 -0.7224 -0.1344c -0.924 -0.3864 -1.2264 -1.4616 -1.2264 -2.7636c 0 -0.2856 0.0168 -0.5544 0.042 -0.8148c 0.1428 -1.1004 0.6552 -2.0328 1.9068 -2.0328c 0.2688 0 0.5124 0.042 0.7224 0.1344c 0.924 0.378 1.2264 1.428 1.2264 2.7132Z m -0.9576 1.8648c 0.0924 -0.3108 0.1428 -0.8904 0.1428 -1.7556c 0 -0.8232 -0.0336 -1.4028 -0.1092 -1.7472c -0.1008 -0.4956 -0.4536 -0.9072 -1.0248 -0.9072c -0.21 0 -0.42 0.0672 -0.6132 0.21c -0.2604 0.1932 -0.42 0.5712 -0.4872 1.1508c -0.0252 0.1932 -0.0336 0.6216 -0.0336 1.2936c 0 0.8148 0.042 1.3776 0.126 1.68c 0.1428 0.5376 0.4788 0.8064 1.008 0.8064c 0.504 0 0.8736 -0.3276 0.9912 -0.7308Z "/></symbol><symbol id="g82FAB6109AFD1A5AC71B1E0C13B45BB5" overflow="visible"><path d="M 0 0m 0.768 3.984c 0 -3.024 2.448 -5.472 5.472 -5.472c 3.024 0 5.472 2.448 5.472 5.472c 0 3.024 -2.448 5.472 -5.472 5.472c -3.024 0 -5.472 -2.448 -5.472 -5.472Z m 9.072 -3.056l -3.072 3.072l 3.056 3.056c 0.704 -0.832 1.136 -1.904 1.136 -3.072c 0 -1.168 -0.416 -2.224 -1.12 -3.056Z m -6.672 6.672c 0.832 0.704 1.888 1.12 3.056 1.12c 1.168 0 2.224 -0.416 3.056 -1.12l -3.056 -3.056Z m 6.128 -7.216c -0.832 -0.704 -1.904 -1.136 -3.072 -1.136c -1.168 0 -2.24 0.432 -3.072 1.136l 3.072 3.072Z m -6.672 6.672l 3.056 -3.056l -3.072 -3.072c -0.704 0.832 -1.12 1.888 -1.12 3.056c 0 1.168 0.432 2.24 1.136 3.072Z "/></symbol><symbol id="g7B5EAD54DC96731AA9940C544FAC898C" overflow="visible"><path d="M 0 0m 5.172 5.436c -0.456 0 -0.876 -0.18 -1.26 -0.54c -0.36 0.276 -0.768 0.408 -1.236 0.408c -1.032 0 -1.968 -0.768 -1.968 -1.776c 0 -0.504 0.18 -0.912 0.54 -1.224c -0.228 -0.288 -0.348 -0.612 -0.348 -0.984c 0 -0.456 0.156 -0.804 0.456 -1.032c -0.504 -0.168 -1.02 -0.6 -1.02 -1.212c 0 -0.516 0.336 -0.924 0.996 -1.212c 0.504 -0.228 1.056 -0.336 1.656 -0.336c 0.612 0 1.176 0.108 1.68 0.336c 0.66 0.288 0.984 0.696 0.984 1.236c 0 0.636 -0.264 1.104 -0.792 1.404c -0.552 0.3 -1.164 0.336 -2.052 0.336c -0.528 0 -0.816 0 -0.876 0.012c -0.336 0.048 -0.576 0.372 -0.576 0.744c 0 0.18 0.048 0.348 0.156 0.492c 0.336 -0.228 0.72 -0.348 1.164 -0.348c 1.032 0 1.956 0.768 1.956 1.776c 0 0.468 -0.156 0.852 -0.468 1.152c 0.3 0.276 0.624 0.408 0.972 0.408c -0.06 -0.06 -0.096 -0.156 -0.096 -0.276c 0 -0.264 0.132 -0.396 0.396 -0.396c 0.252 0 0.384 0.132 0.384 0.408c 0 0.372 -0.288 0.624 -0.648 0.624Z m -2.496 -0.504c 0.648 0 0.972 -0.468 0.972 -1.404c 0 -0.948 -0.324 -1.428 -0.972 -1.428c -0.66 0 -0.984 0.468 -0.984 1.416c 0 0.948 0.324 1.416 0.984 1.416Z m -0.708 -4.884h 0.696c 0.624 0 1.128 -0.036 1.512 -0.12c 0.516 -0.108 0.768 -0.396 0.768 -0.852c 0 -0.384 -0.24 -0.684 -0.72 -0.912c -0.372 -0.18 -0.78 -0.264 -1.224 -0.264c -0.432 0 -0.84 0.084 -1.224 0.264c -0.492 0.228 -0.732 0.528 -0.732 0.912c 0 0.504 0.432 0.972 0.924 0.972Z "/></symbol><symbol id="g35FEDEA4DB2771F58F898EF101826CA7" overflow="visible"><path d="M 0 0m 12.564 4.932h -5.13v 5.13c 0 0.288 -0.144 0.432 -0.432 0.432c -0.288 0 -0.432 -0.144 -0.432 -0.432v -5.13h -5.13c -0.288 0 -0.432 -0.144 -0.432 -0.432c 0 -0.288 0.144 -0.432 0.432 -0.432h 5.13v -5.13c 0 -0.288 0.144 -0.432 0.432 -0.432c 0.288 0 0.432 0.144 0.432 0.432v 5.13h 5.13c 0.288 0 0.432 0.144 0.432 0.432c 0 0.234 -0.198 0.432 -0.432 0.432Z "/></symbol></defs></svg>